PathFileType	4	(X/Y/Z)	TVC_60_BWA03_walk_RCNL2025.trc
DataRate	CameraRate	NumFrames	NumMarkers	Units	OrigDataRate	OrigDataStartFrame	OrigNumFrames
100	100	12	27	mm	100	172	275
Frame#	Time	R_Shoulder			L_Shoulder			C7			J_Notch			R_Elbow			L_Elbow			R_Wrist			L_Wrist			R_Asis			L_Asis			R_Psis			L_Psis			Sacral			Thoracic			Sternum			R_Thigh_Lateral			R_Knee_Lateral			R_Shank_Lateral			R_Ankle_Lateral			R_Heel			R_Toe			L_Thigh_Lateral			L_Knee_Lateral			L_Shank_Lateral			L_Ankle_Lateral			L_Heel			L_Toe		
		X1	Y1	Z1	X2	Y2	Z2	X3	Y3	Z3	X4	Y4	Z4	X5	Y5	Z5	X6	Y6	Z6	X7	Y7	Z7	X8	Y8	Z8	X9	Y9	Z9	X10	Y10	Z10	X11	Y11	Z11	X12	Y12	Z12	X13	Y13	Z13	X14	Y14	Z14	X15	Y15	Z15	X16	Y16	Z16	X17	Y17	Z17	X18	Y18	Z18	X19	Y19	Z19	X20	Y20	Z20	X21	Y21	Z21	X22	Y22	Z22	X23	Y23	Z23	X24	Y24	Z24	X25	Y25	Z25	X26	Y26	Z26	X27	Y27	Z27
172	1.71000000	-354.220734	1310.780884	155.561661	-376.864197	1338.782959	-196.536346	-421.125519	1393.603271	-21.699459	-313.659729	1262.764771	-27.080307	-482.338013	1008.335388	247.683456	-432.918915	999.451050	-260.087677	-467.333237	778.606537	309.690720	-352.751556	784.070404	-312.475876	-329.393433	905.296387	113.764786	-353.686249	904.935364	-168.851486	-511.954041	904.130432	49.648155	-521.730408	905.379089	-60.695930	-516.842224	904.754761	-5.523888	-480.110870	1185.512939	-19.615772	-287.914276	1067.397339	-21.371445	-316.895660	592.611389	178.552124	-251.366333	446.679626	99.932236	-271.434784	226.431229	122.219818	-308.794067	62.320637	45.313934	-349.317505	58.057419	-6.149354	-178.973495	42.512901	43.152248	-473.766907	614.216858	-243.333450	-423.454742	434.684418	-174.031464	-577.453003	321.899017	-198.361053	-730.699707	192.836334	-118.599564	-750.463135	228.624542	-71.441971	-678.262634	77.232483	-115.888832
173	1.72000000	-345.151581	1311.242065	156.667480	-367.938385	1339.769775	-195.298676	-412.235382	1394.534180	-20.360357	-304.981384	1263.445312	-25.907999	-470.152100	1007.851929	250.203812	-426.467194	1000.693604	-258.275818	-450.506592	778.339966	311.149933	-348.745514	784.318970	-310.505753	-321.381226	906.101562	115.005722	-345.871948	905.647400	-167.845612	-504.050659	905.090088	50.653854	-513.768982	905.952637	-59.719753	-508.909821	905.521362	-4.532949	-471.649445	1186.556885	-18.466814	-279.761383	1067.935913	-20.357275	-311.612396	592.562073	179.458023	-247.717407	446.050598	100.627266	-269.861267	225.867798	122.583183	-308.797546	62.242226	45.233364	-349.227936	58.167553	-6.199096	-179.004883	42.443581	43.272301	-456.848755	614.507385	-242.206268	-405.610382	435.119415	-173.300980	-560.102234	323.678253	-197.112717	-713.809814	195.846588	-117.180374	-733.368042	230.575836	-69.090828	-660.374023	81.465950	-118.236427
174	1.73000000	-336.165375	1311.680542	157.702728	-359.158051	1340.722778	-194.131927	-403.432709	1395.453003	-19.083382	-296.423950	1264.089600	-24.816629	-457.893158	1007.345459	252.706589	-420.042969	1001.912537	-256.549255	-433.432831	778.113159	312.430923	-344.685822	784.588043	-308.585831	-313.510651	906.854004	116.176476	-338.258698	906.377686	-166.909958	-496.293213	906.031250	51.662865	-505.974548	906.543518	-58.725662	-501.133881	906.287384	-3.531399	-463.313965	1187.596069	-17.341089	-271.771423	1068.435547	-19.433506	-305.975037	592.783813	180.450119	-244.297333	445.424744	101.288284	-268.285187	225.322357	122.928513	-308.787018	62.165623	45.187119	-349.129303	58.307415	-6.201918	-179.025696	42.366199	43.391151	-439.909363	615.144470	-240.973557	-387.738403	435.864349	-172.471985	-542.377625	325.263733	-195.839188	-695.995789	198.014832	-115.848885	-715.592102	231.540207	-66.874939	-640.846985	85.229530	-120.582031
175	1.74000000	-327.260712	1312.100342	158.668320	-350.529114	1341.640015	-193.034821	-394.720276	1396.354858	-17.867222	-287.986908	1264.697632	-23.806049	-445.557251	1006.822693	255.181091	-413.649017	1003.101929	-254.905960	-416.136536	777.938385	313.526337	-340.560120	784.877502	-306.721771	-305.776947	907.559998	117.283844	-330.810791	907.131287	-166.024368	-488.671814	906.953003	52.666870	-498.331757	907.152954	-57.724804	-493.501785	907.052979	-2.528967	-455.102386	1188.625244	-16.237535	-263.933990	1068.903931	-18.595587	-300.092499	593.197449	181.484131	-241.080597	444.810242	101.908783	-266.725128	224.797440	123.245003	-308.760681	62.096817	45.170609	-349.020905	58.485031	-6.164340	-179.037613	42.288761	43.501423	-422.955261	616.116394	-239.657440	-369.862000	436.920715	-171.559219	-524.287598	326.624695	-194.587646	-677.284058	199.285751	-114.665230	-697.141907	231.531769	-64.897217	-619.875183	88.361496	-122.796013
176	1.75000000	-318.435272	1312.505371	159.565781	-342.054810	1342.520020	-192.005188	-386.100128	1397.235107	-16.709970	-279.668365	1265.270020	-22.874853	-433.140930	1006.290222	257.616302	-407.288055	1004.256470	-253.343048	-398.643127	777.827118	314.430420	-336.357605	785.187042	-304.918945	-298.174500	908.225525	118.335976	-323.492615	907.912170	-165.169800	-481.175903	907.853516	53.656826	-490.824402	907.780090	-56.729248	-486.000153	907.816803	-1.536211	-447.011536	1189.638550	-15.155367	-256.237640	1069.348389	-17.837135	-294.124023	593.705566	182.508957	-238.043976	444.213562	102.483711	-265.214050	224.299896	123.526199	-308.720062	62.039894	45.177021	-348.901794	58.707088	-6.096158	-179.043503	42.218224	43.598019	-405.997131	617.397766	-238.279831	-352.003571	438.277924	-170.578140	-505.832489	327.722839	-193.403641	-657.706909	199.623901	-113.680054	-678.028076	230.579102	-63.245411	-597.648743	90.736755	-124.764954
177	1.76000000	-309.686035	1312.898926	160.397186	-333.735870	1343.361328	-191.040085	-377.573395	1398.089111	-15.609216	-271.465363	1265.807007	-22.020456	-420.641296	1005.754150	260.001129	-400.962433	1005.371338	-251.856934	-380.978622	777.789612	315.138962	-332.069138	785.515778	-303.182327	-290.696991	908.855835	119.341614	-316.270172	908.722412	-164.329605	-473.794586	908.729919	54.623283	-483.435608	908.421631	-55.751450	-478.615097	908.575775	-0.564083	-439.037292	1190.630493	-14.094123	-248.670242	1069.775146	-17.150356	-288.241302	594.213074	183.477356	-235.166733	443.639252	103.009712	-263.794006	223.839020	123.770340	-308.668427	61.997051	45.198235	-348.770599	58.978748	-6.008874	-179.046280	42.159283	43.677769	-389.053162	618.954529	-236.860367	-334.187378	439.915344	-169.543442	-487.008026	328.515961	-192.327026	-637.301453	199.014404	-112.931526	-658.265991	228.719894	-61.985241	-574.335205	92.276062	-126.404663
178	1.77000000	-301.009216	1313.283569	161.165161	-325.570404	1344.162842	-190.135941	-369.140625	1398.911743	-14.562149	-263.373962	1266.308594	-21.239227	-408.056213	1005.219849	262.324829	-394.673920	1006.442139	-250.443527	-363.169525	777.834625	315.649399	-327.687073	785.862274	-301.516525	-283.337280	909.454956	120.309380	-309.111908	909.561707	-163.490631	-466.516693	909.578369	55.556709	-476.148071	909.071899	-54.803795	-471.332382	909.325134	0.376457	-431.174744	1191.595581	-13.053719	-241.219086	1070.188843	-16.526470	-282.593597	594.642822	184.352982	-232.430359	443.089722	103.485260	-262.508362	223.424026	123.979004	-308.609589	61.968864	45.225735	-348.625671	59.303108	-5.914224	-179.048309	42.114021	43.739037	-372.149780	620.748352	-235.415436	-316.441193	441.804871	-168.467972	-467.809265	328.962891	-191.388962	-616.107483	197.463058	-112.443878	-637.875305	225.996948	-61.156490	-550.069153	92.949722	-127.667450
179	1.78000000	-292.400543	1313.660278	161.872696	-317.554260	1344.922852	-189.288651	-360.801422	1399.698364	-13.565661	-255.389175	1266.774536	-20.526615	-395.384552	1004.691589	264.576965	-388.423492	1007.464539	-249.098465	-345.242584	777.969147	315.960770	-323.205200	786.224274	-299.925674	-276.087646	910.025574	121.247276	-301.989563	910.427429	-162.643738	-459.331146	910.393799	56.447784	-468.944519	909.722961	-53.898136	-464.137833	910.058380	1.274824	-423.418243	1192.527710	-12.034487	-233.871277	1070.592651	-15.956124	-277.283234	594.945557	185.113602	-229.818405	442.565582	103.910622	-261.391541	223.061432	124.155289	-308.546844	61.954605	45.251404	-348.465576	59.680569	-5.822981	-179.050888	42.082211	43.781284	-355.319824	622.740356	-233.958496	-298.796661	443.913239	-167.362350	-448.234100	329.027740	-190.609970	-594.165100	194.995590	-112.227325	-616.877625	222.455582	-60.772285	-524.949951	92.775635	-128.543839
180	1.79000000	-283.855438	1314.028809	162.523117	-309.681122	1345.639160	-188.493790	-352.554810	1400.443481	-12.616452	-247.505386	1267.203857	-19.877327	-382.626312	1004.172607	266.747864	-382.211121	1008.434509	-247.817261	-327.224640	778.198242	316.073669	-318.618698	786.598724	-298.413300	-268.939972	910.568604	122.162292	-294.878510	911.314392	-161.784088	-452.226868	911.170166	57.287697	-461.807739	910.364807	-53.045414	-457.017303	910.767487	2.121141	-415.761536	1193.421021	-11.037213	-226.613831	1070.987183	-15.429767	-272.353241	595.102722	185.752426	-227.316116	442.065735	104.287682	-260.459381	222.753098	124.302071	-308.482666	61.952591	45.268120	-348.289307	60.108536	-5.744169	-179.054199	42.061863	43.804661	-338.599335	624.892761	-232.501083	-281.288849	446.203613	-166.235092	-428.286682	328.683960	-189.999207	-571.512451	191.656403	-112.279289	-595.293274	218.142105	-60.821053	-499.045868	91.812775	-129.059677
181	1.80000000	-275.369415	1314.387451	163.120010	-301.942841	1346.309570	-187.746735	-344.399048	1401.142212	-11.711121	-239.716248	1267.594727	-19.285494	-369.782562	1003.664673	268.828583	-376.035583	1009.348083	-246.595428	-309.142365	778.524963	315.990128	-313.923889	786.981628	-296.982330	-261.885773	911.083374	123.060242	-287.757690	912.215454	-160.910767	-445.192993	911.900391	58.068390	-454.721100	910.985840	-52.255344	-449.957047	911.443115	2.906523	-408.197968	1194.269409	-10.063163	-219.433838	1071.371460	-14.937961	-267.787140	595.123596	186.277069	-224.909836	441.587646	104.619888	-259.703674	222.495209	124.420959	-308.418549	61.960606	45.270184	-348.096710	60.581776	-5.684592	-179.057465	42.049915	43.809822	-322.025024	627.169861	-231.054016	-263.955750	448.637085	-165.092880	-407.979645	327.917419	-189.555161	-548.184326	187.506439	-112.586395	-573.138489	213.103561	-61.270649	-472.401917	90.152069	-129.269272
182	1.81000000	-266.938202	1314.732788	163.667191	-294.329498	1346.930786	-187.042801	-336.331848	1401.788818	-10.846265	-232.014954	1267.945068	-18.744862	-356.855713	1003.168579	270.810974	-369.894501	1010.201111	-245.428650	-291.022202	778.950226	315.713638	-309.118195	787.368103	-295.635040	-254.916534	911.567749	123.945663	-280.609680	913.121704	-160.026291	-438.218903	912.576843	58.782734	-447.668488	911.573181	-51.536213	-442.943695	912.075012	3.623260	-400.720428	1195.066528	-9.114090	-212.318619	1071.742432	-14.471647	-263.520081	595.037170	186.706299	-222.586639	441.127686	104.912033	-259.092743	222.278656	124.512474	-308.355164	61.976284	45.253632	-347.888428	61.093197	-5.648609	-179.059448	42.042953	43.798065	-305.633026	629.537537	-229.628571	-246.837769	451.173370	-163.941299	-387.336304	326.728943	-189.267090	-524.210693	182.620819	-113.126740	-550.424438	207.388565	-62.073769	-445.050049	87.906479	-129.246063
183	1.82000000	-258.558197	1315.060303	164.168625	-286.829956	1347.499268	-186.377380	-328.350250	1402.378052	-10.018565	-224.394302	1268.251831	-18.248972	-343.849426	1002.683655	272.687927	-363.784058	1010.989685	-244.312851	-272.890137	779.472992	315.248825	-304.199951	787.752472	-294.372910	-248.023743	912.018311	124.821938	-273.420135	914.022888	-159.135788	-431.294067	913.191162	59.424656	-440.634583	912.113342	-50.894756	-435.964325	912.652252	4.264950	-393.321625	1195.806030	-8.192243	-205.255844	1072.095459	-14.022329	-259.457764	594.881165	187.065216	-220.333847	440.681396	105.170044	-258.578613	222.090805	124.577019	-308.292603	61.997425	45.216488	-347.665833	61.634853	-5.638014	-179.059082	42.037796	43.771679	-289.458832	631.963013	-228.237091	-229.977173	453.771698	-162.785477	-366.391510	325.136017	-189.117310	-499.616821	177.086288	-113.872383	-527.157288	201.048889	-63.173737	-417.017975	85.201706	-129.071976
